<svg width="570" height="128" viewBox="0 0 570 128" fill="none" xmlns="http://www.w3.org/2000/svg">
<path d="M94.1566 22.8189C83.7566 7.9338 63.2166 3.5218 48.3652 12.9841L22.2825 29.6078C18.759 31.8245 15.7367 34.752 13.409 38.2032C11.0812 41.6544 9.49914 45.5532 8.76389 49.6506C7.51969 56.5524 8.61327 63.6721 11.8715 69.8824C9.63887 73.2692 8.11613 77.0734 7.39529 81.0653C6.65225 85.2452 6.75133 89.5314 7.68673 93.6725C8.62214 97.8137 10.375 101.726 12.8426 105.181C23.2448 120.067 43.7849 124.478 58.634 115.016L84.7167 98.3921C88.2404 96.1756 91.2629 93.2482 93.5906 89.797C95.9184 86.3458 97.5004 82.4468 98.2353 78.3493C99.4793 71.4475 98.3866 64.328 95.13 58.117C97.362 54.7303 98.8841 50.9262 99.6043 46.9346C100.348 42.7547 100.249 38.4684 99.3136 34.3272C98.3781 30.186 96.6246 26.2734 94.1566 22.8189Z" fill="#FF3E00"/>
<path d="M45.8171 106.581C41.7125 107.649 37.3792 107.431 33.4025 105.957C29.4259 104.483 25.9973 101.824 23.58 98.3389C22.0958 96.2615 21.0414 93.9085 20.4788 91.4182C19.9161 88.9278 19.8565 86.3501 20.3034 83.8364C20.4548 83.0111 20.663 82.1973 20.9267 81.4007L21.4179 79.9029L22.7542 80.8844C25.8403 83.152 29.2909 84.876 32.9572 85.9822L33.9266 86.2763L33.8373 87.2438C33.7189 88.6202 34.0916 89.9941 34.8893 91.1219C35.6168 92.1716 36.6489 92.9727 37.8462 93.4171C39.0435 93.8615 40.3484 93.9278 41.5845 93.6069C42.1514 93.4554 42.6917 93.2179 43.1866 92.9028L69.27 76.281C69.9082 75.8791 70.4557 75.3487 70.8777 74.7236C71.2996 74.0984 71.5867 73.3922 71.7206 72.65C71.8544 71.8923 71.8361 71.1156 71.6665 70.3651C71.497 69.6146 71.1797 68.9054 70.7331 68.2788C70.0052 67.2289 68.9727 66.4275 67.775 65.9829C66.5773 65.5383 65.272 65.4718 64.0353 65.7924C63.4692 65.9439 62.9296 66.1812 62.4353 66.496L52.4821 72.8409C50.8454 73.8815 49.0593 74.6659 47.1856 75.1668C43.081 76.234 38.7478 76.0159 34.7712 74.5418C30.7946 73.0677 27.3661 70.4088 24.9488 66.9241C23.4646 64.8467 22.4102 62.4938 21.8475 60.0034C21.2848 57.5131 21.2252 54.9354 21.6722 52.4217C22.1143 49.9578 23.0657 47.6134 24.4656 45.5382C25.8655 43.4631 27.6832 41.7029 29.8022 40.3704L55.8833 23.7472C57.5207 22.7049 59.3081 21.9195 61.1833 21.4185C65.2879 20.3513 69.621 20.5695 73.5977 22.0435C77.5743 23.5175 81.0027 26.1764 83.42 29.6611C84.9042 31.7385 85.9586 34.0914 86.5212 36.5818C87.0839 39.0722 87.1435 41.6499 86.6966 44.1636C86.5446 44.9888 86.3364 45.8026 86.0733 46.5993L85.5821 48.0971L84.2465 47.1171C81.1606 44.8482 77.7097 43.1234 74.0428 42.0171L73.0734 41.7229L73.1627 40.7554C73.2801 39.3791 72.9076 38.0056 72.1107 36.8774C71.3832 35.8277 70.3512 35.0266 69.1538 34.5822C67.9565 34.1378 66.6517 34.0715 65.4155 34.3924C64.8487 34.5439 64.3084 34.7814 63.8134 35.0965L37.73 51.719C37.0919 52.1206 36.5445 52.6508 36.1229 53.2758C35.7013 53.9008 35.4146 54.6069 35.2813 55.349C35.1467 56.1066 35.1645 56.8835 35.3337 57.6341C35.5029 58.3848 35.8202 59.0942 36.2669 59.7207C36.9948 60.7706 38.0273 61.5719 39.225 62.0166C40.4227 62.4612 41.728 62.5277 42.9647 62.2071C43.5314 62.0553 44.0717 61.8178 44.5667 61.503L54.5186 55.1605C56.1546 54.1185 57.9406 53.3334 59.8145 52.8327C63.9191 51.7655 68.2523 51.9836 72.2289 53.4577C76.2056 54.9317 79.634 57.5907 82.0513 61.0754C83.5356 63.1528 84.59 65.5057 85.1526 67.9961C85.7153 70.4864 85.7749 73.0641 85.3279 75.5778C84.8856 78.0418 83.9341 80.3864 82.5342 82.4619C81.1343 84.5373 79.3168 86.2978 77.1979 87.631L51.1167 104.253C49.4793 105.295 47.6923 106.08 45.8171 106.581Z" fill="white"/>
<path d="M108.922 72.1719C108.453 70.8281 108.078 69.2812 107.797 67.5312C107.516 65.7812 107.375 64.0781 107.375 62.4219C108.188 60.1094 109.594 58.1875 111.594 56.6562C113.625 55.125 116.109 54.3594 119.047 54.3594C121.859 54.3594 124.125 55.25 125.844 57.0312C127.594 58.7812 129.141 61.5312 130.484 65.2812C131.891 69.2188 133.031 73.875 133.906 79.25C134.781 84.625 135.391 90.4219 135.734 96.6406L137.094 96.6875C138.469 93.9375 139.656 90.0156 140.656 84.9219C141.656 79.7969 142.172 74.9375 142.203 70.3438L136.344 69.3125C135.938 67.7812 135.656 66.4375 135.5 65.2812C135.344 64.0938 135.266 62.7969 135.266 61.3906L135.312 60.0781C135.875 59.2656 136.812 58.4219 138.125 57.5469C139.438 56.6719 141 55.9375 142.812 55.3438C144.656 54.75 146.578 54.4531 148.578 54.4531C156.641 54.4531 160.672 58.5 160.672 66.5938C160.672 71.4062 159.812 76.5625 158.094 82.0625C156.375 87.5312 153.891 92.75 150.641 97.7188C147.422 102.688 143.625 106.781 139.25 110C137.719 110.625 135.641 110.938 133.016 110.938C131.609 110.938 130.031 110.625 128.281 110C126.531 109.406 125.234 108.781 124.391 108.125L123.406 104.844C121.156 97.2188 119.125 90.6562 117.312 85.1562C115.5 79.625 113.844 75.5156 112.344 72.8281L108.922 72.1719ZM165.453 82.7656C165.453 77.3594 166.359 72.5312 168.172 68.2812C169.984 64.0312 172.781 60.6719 176.562 58.2031C180.375 55.7031 185.125 54.4531 190.812 54.4531C193.781 54.4531 196.75 54.8125 199.719 55.5312C202.688 56.2188 205.203 57.375 207.266 59C209.172 60.5312 210.547 62.5625 211.391 65.0938C212.266 67.5938 212.703 70.375 212.703 73.4375C212.703 75.4688 212.531 77.5469 212.188 79.6719C211.812 80.2969 211.078 81.125 209.984 82.1562C208.891 83.1562 207.609 84.1406 206.141 85.1094C204.672 86.0781 203.25 86.8281 201.875 87.3594C200.562 87.4531 199.203 87.5 197.797 87.5C195.328 87.5 192.828 87.3906 190.297 87.1719C187.766 86.9531 185.547 86.7031 183.641 86.4219C183.891 89.0781 184.703 91.3906 186.078 93.3594C187.453 95.3281 189.641 96.3125 192.641 96.3125C192.922 96.3125 193.375 96.2812 194 96.2188C195.906 96.0312 198.125 95.5312 200.656 94.7188C203.219 93.875 205.766 92.9062 208.297 91.8125C209.484 93 210.359 94.1875 210.922 95.375C211.484 96.5625 211.875 98.2656 212.094 100.484C211.125 101.609 209.547 102.984 207.359 104.609C205.203 106.234 202.562 107.703 199.438 109.016C196.312 110.297 193.047 110.938 189.641 110.938C184.516 110.938 180.125 109.703 176.469 107.234C172.844 104.734 170.094 101.359 168.219 97.1094C166.375 92.8281 165.453 88.0469 165.453 82.7656ZM195.641 71.9844C195.203 71.5156 194.469 71.1562 193.438 70.9062C192.406 70.625 191.328 70.4844 190.203 70.4844C189.297 70.4844 188.375 70.5625 187.438 70.7188C186.531 70.875 185.984 71.0469 185.797 71.2344C184.734 73.3281 184.062 75.7031 183.781 78.3594L196.297 77.1406L195.641 71.9844ZM217.672 48.6875C217.203 46.7812 216.891 45.2031 216.734 43.9531C216.578 42.6719 216.516 41.2031 216.547 39.5469C217.203 38.7031 218.219 37.8594 219.594 37.0156C221 36.1406 222.625 35.4062 224.469 34.8125C226.344 34.2188 228.281 33.9219 230.281 33.9219C234.188 33.9219 237.188 34.9062 239.281 36.875C241.375 38.8438 242.422 41.75 242.422 45.5938C242.422 48.3438 242.188 52.7656 241.719 58.8594C241.25 64.9531 240.578 71.4375 239.703 78.3125C238.828 85.1562 237.828 91.1406 236.703 96.2656L236.797 96.3594L243.734 93.4531C246.172 95.5469 247.594 98.3281 248 101.797C248 102.016 247.297 102.922 245.891 104.516C244.484 106.078 242.625 107.547 240.312 108.922C238.031 110.266 235.406 110.938 232.438 110.938C229.344 110.938 226.828 110.078 224.891 108.359C222.984 106.641 222.078 103.703 222.172 99.5469L222.266 91.1094C222.297 83.1094 222.375 75.9062 222.5 69.5C222.656 63.0938 222.969 56.4844 223.438 49.6719L217.672 48.6875ZM255.641 84.125C255.641 79.0312 255.719 74.3906 255.875 70.2031L250.766 69.3125C250.359 67.75 250.078 66.375 249.922 65.1875C249.766 64 249.688 62.7344 249.688 61.3906L249.781 60.4531C249.875 60.0156 249.922 59.6562 249.922 59.375L256.719 57.875C256.875 55.9375 257.234 53.75 257.797 51.3125C258.359 48.875 258.953 47.0781 259.578 45.9219C260.578 45.1719 261.781 44.6094 263.188 44.2344C264.594 43.8594 266.109 43.6719 267.734 43.6719C269.109 43.6719 270.438 43.8125 271.719 44.0938C273.031 44.3438 274.172 44.6875 275.141 45.125C275.234 46.1875 275.281 47.4062 275.281 48.7812C275.281 51.0312 275.172 53.5781 274.953 56.4219L283.203 54.9219C284.359 56.9219 284.938 59.0938 284.938 61.4375C284.938 63.0625 284.734 64.5312 284.328 65.8438C283.953 67.1562 283.422 68.6406 282.734 70.2969C280.672 70.6406 277.844 70.8594 274.25 70.9531C273.812 76.0469 272.844 83.5312 271.344 93.4062L271.109 95L271.203 95.0938L282.219 91.6719C284.5 93.5781 285.891 96.5156 286.391 100.484C286.391 100.703 285.375 101.734 283.344 103.578C281.344 105.391 278.828 107.078 275.797 108.641C272.766 110.172 269.469 110.938 265.906 110.938C259.688 110.938 256.375 107.141 255.969 99.5469C255.75 95.7031 255.641 90.5625 255.641 84.125ZM289.578 82.7656C289.578 77.3594 290.484 72.5312 292.297 68.2812C294.109 64.0312 296.906 60.6719 300.688 58.2031C304.5 55.7031 309.25 54.4531 314.938 54.4531C317.906 54.4531 320.875 54.8125 323.844 55.5312C326.812 56.2188 329.328 57.375 331.391 59C333.297 60.5312 334.672 62.5625 335.516 65.0938C336.391 67.5938 336.828 70.375 336.828 73.4375C336.828 75.4688 336.656 77.5469 336.312 79.6719C335.938 80.2969 335.203 81.125 334.109 82.1562C333.016 83.1562 331.734 84.1406 330.266 85.1094C328.797 86.0781 327.375 86.8281 326 87.3594C324.688 87.4531 323.328 87.5 321.922 87.5C319.453 87.5 316.953 87.3906 314.422 87.1719C311.891 86.9531 309.672 86.7031 307.766 86.4219C308.016 89.0781 308.828 91.3906 310.203 93.3594C311.578 95.3281 313.766 96.3125 316.766 96.3125C317.047 96.3125 317.5 96.2812 318.125 96.2188C320.031 96.0312 322.25 95.5312 324.781 94.7188C327.344 93.875 329.891 92.9062 332.422 91.8125C333.609 93 334.484 94.1875 335.047 95.375C335.609 96.5625 336 98.2656 336.219 100.484C335.25 101.609 333.672 102.984 331.484 104.609C329.328 106.234 326.688 107.703 323.562 109.016C320.438 110.297 317.172 110.938 313.766 110.938C308.641 110.938 304.25 109.703 300.594 107.234C296.969 104.734 294.219 101.359 292.344 97.1094C290.5 92.8281 289.578 88.0469 289.578 82.7656ZM319.766 71.9844C319.328 71.5156 318.594 71.1562 317.562 70.9062C316.531 70.625 315.453 70.4844 314.328 70.4844C313.422 70.4844 312.5 70.5625 311.562 70.7188C310.656 70.875 310.109 71.0469 309.922 71.2344C308.859 73.3281 308.188 75.7031 307.906 78.3594L320.422 77.1406L319.766 71.9844ZM363.922 94.9531C365.828 95.5781 367.562 96.0781 369.125 96.4531C372.156 84.2656 375.609 69.875 379.484 53.2812L368.188 52.0625C367.469 50.0938 367.109 47.8594 367.109 45.3594C367.109 43.4531 367.328 41.5938 367.766 39.7812C372.297 38.9062 377.516 38.2812 383.422 37.9062C389.359 37.5 394.453 37.2969 398.703 37.2969C401.766 37.2969 404.062 37.3125 405.594 37.3438L408.547 39.0312C413.797 53.4375 419.125 72.9219 424.531 97.4844C424.594 97.7344 424.703 98.2344 424.859 98.9844C425.047 99.7344 425.188 100.453 425.281 101.141C425.375 101.797 425.422 102.422 425.422 103.016C425.422 105.641 424.484 107.766 422.609 109.391C419.984 110.422 416.812 110.938 413.094 110.938C411.344 110.938 409.578 110.75 407.797 110.375C406.016 110 404.812 109.422 404.188 108.641L404.75 96.5469L403.578 90.2656C401.547 90.3906 399.156 90.4531 396.406 90.4531C393.469 90.4531 390.719 90.3594 388.156 90.1719L387.594 92.7031C386.375 98.1406 385.375 102 384.594 104.281C383.844 106.562 382.719 108.25 381.219 109.344C379.75 110.438 377.547 110.984 374.609 110.984C372.703 110.984 370.781 110.734 368.844 110.234C366.906 109.766 365.156 109.125 363.594 108.312C362.031 107.5 360.859 106.625 360.078 105.688C360.078 103.438 360.422 101.297 361.109 99.2656C361.797 97.2344 362.734 95.7969 363.922 94.9531ZM396.781 53.7031H394.625L391.25 76.8125H401.75L396.781 53.7031ZM434.891 97.4375C434.891 96.0938 434.922 92.7969 434.984 87.5469C435.078 77.2344 435.125 71.5938 435.125 70.625L430.812 69.9219C430.219 68.1406 429.797 66.4688 429.547 64.9062C429.297 63.3438 429.172 61.7656 429.172 60.1719C429.172 59.5156 429.188 59.0156 429.219 58.6719C429.75 58.2031 430.578 57.6406 431.703 56.9844C432.828 56.3281 434.156 55.75 435.688 55.25C437.219 54.7188 438.781 54.4531 440.375 54.4531C444.094 54.4531 446.781 55.2812 448.438 56.9375C450.125 58.5938 450.969 61.0156 450.969 64.2031C450.969 66.1406 450.719 68.625 450.219 71.6562C449.75 74.6562 449.266 76.7969 448.766 78.0781L450.453 78.3594L453.266 67.7656C454.516 62.9844 456.078 59.5781 457.953 57.5469C459.828 55.4844 461.938 54.4531 464.281 54.4531C465.812 54.4531 467.328 54.6875 468.828 55.1562C470.359 55.625 471.531 56.2031 472.344 56.8906C473.219 58.8281 473.656 61.4062 473.656 64.625C473.656 66.875 473.438 69.1094 473 71.3281C472.562 73.5156 472 75.2812 471.312 76.625L461.469 75.3125C459.469 77.4375 457.344 80.3906 455.094 84.1719C452.844 87.9219 451.047 91.375 449.703 94.5312L449.656 96.9688L458.75 94.8125C460.281 97.1562 461.172 99.9375 461.422 103.156C461.422 103.344 460.719 104.109 459.312 105.453C457.906 106.797 456.047 108.047 453.734 109.203C451.453 110.328 448.828 110.891 445.859 110.891C442.797 110.891 440.234 110.078 438.172 108.453C436.141 106.797 435.062 104.016 434.938 100.109C434.906 99.6406 434.891 98.75 434.891 97.4375ZM479.234 42.7344C479.234 39.9844 480.125 37.75 481.906 36.0312C483.719 34.3125 486.594 33.4531 490.531 33.4531C494.469 33.4531 497.328 34.3125 499.109 36.0312C500.922 37.75 501.828 39.9844 501.828 42.7344C501.828 44.2969 501.281 45.7344 500.188 47.0469C499.125 48.3594 497.719 49.4062 495.969 50.1875C494.219 50.9375 492.406 51.3125 490.531 51.3125C488.5 51.3125 486.609 50.875 484.859 50C483.141 49.0938 481.766 47.9688 480.734 46.625C479.734 45.2812 479.234 43.9844 479.234 42.7344ZM476.938 69.5469C476.531 68.0156 476.25 66.625 476.094 65.375C475.938 64.0938 475.859 62.7656 475.859 61.3906L475.906 60.0781C476.562 59.2344 477.578 58.3906 478.953 57.5469C480.359 56.6719 481.984 55.9375 483.828 55.3438C485.703 54.75 487.641 54.4531 489.641 54.4531C494.016 54.4531 497.125 55.4375 498.969 57.4062C500.812 59.375 501.734 62.4375 501.734 66.5938C501.734 69.0938 501.375 72.3594 500.656 76.3906C499.969 80.4219 499.125 84.3438 498.125 88.1562C497.156 91.9375 496.312 94.6406 495.594 96.2656L495.688 96.3594L502.625 93.8281C503.875 94.8906 504.812 96.0625 505.438 97.3438C506.094 98.625 506.516 100.109 506.703 101.797C506.703 102.016 506.016 102.922 504.641 104.516C503.266 106.078 501.438 107.547 499.156 108.922C496.906 110.266 494.297 110.938 491.328 110.938C488.328 110.938 485.891 110.125 484.016 108.5C482.172 106.875 481.25 104.094 481.25 100.156C481.25 95.5625 481.375 90.6875 481.625 85.5312C481.875 80.375 482.266 75.375 482.797 70.5312L476.938 69.5469ZM525.734 79.1094C527.578 79.1094 529.609 79.2969 531.828 79.6719C534.078 80.0469 536.141 80.5 538.016 81.0312V79.5781C538.016 78.6094 537.984 77.5312 537.922 76.3438C537.891 75.1562 537.828 74.375 537.734 74C537.453 73.4688 536.641 72.9219 535.297 72.3594C533.984 71.7969 531.828 71.5156 528.828 71.5156C526.984 71.5156 525.078 71.75 523.109 72.2188C521.172 72.6562 519.016 73.25 516.641 74C515.359 71.875 514.328 69.8594 513.547 67.9531C512.797 66.0156 512.422 64.0781 512.422 62.1406C512.422 61.5469 512.469 60.9531 512.562 60.3594C517.625 56.4219 524.172 54.4531 532.203 54.4531C536.641 54.4531 540.578 54.9531 544.016 55.9531C547.453 56.9531 550.281 58.8906 552.5 61.7656C554.719 64.6406 555.828 68.7188 555.828 74C555.828 79.1562 555.219 84.1562 554 89C552.812 93.8125 552.203 96.2656 552.172 96.3594L558.969 93.4531C559.875 94.4219 560.672 95.6094 561.359 97.0156C562.078 98.3906 562.531 99.9844 562.719 101.797C562.281 102.734 561.328 103.938 559.859 105.406C558.391 106.844 556.594 108.125 554.469 109.25C552.344 110.375 550.125 110.938 547.812 110.938C545.219 110.938 543.25 110.172 541.906 108.641C540.594 107.109 539.938 105.125 539.938 102.688C539.938 101.312 540.141 99.9219 540.547 98.5156L539.141 98.0938C538.266 103.031 536.406 106.406 533.562 108.219C530.719 110.031 527.578 110.938 524.141 110.938C521.891 110.938 519.719 110.312 517.625 109.062C515.531 107.781 513.828 105.938 512.516 103.531C511.203 101.094 510.547 98.25 510.547 95C510.547 89.8125 511.844 85.875 514.438 83.1875C517.031 80.4688 520.797 79.1094 525.734 79.1094ZM531.078 96.9688C531.859 96.8125 532.781 96.375 533.844 95.6562C534.938 94.9375 535.906 94.0781 536.75 93.0781C537.594 92.0781 538.094 91.125 538.25 90.2188L537.969 89.0938C536.312 88.875 534.547 88.7656 532.672 88.7656C531.078 88.7656 529.984 88.8906 529.391 89.1406C528.391 90.2656 527.891 91.5156 527.891 92.8906C527.891 93.8906 528.141 94.7969 528.641 95.6094C529.172 96.4219 529.984 96.875 531.078 96.9688Z" fill="white"/>
</svg>
